<svg width="251" height="193" viewBox="0 0 251 193" fill="none" xmlns="http://www.w3.org/2000/svg">
<path d="M187.813 52.1668V30.8354H251V52.1668H230.321V191.394H208.492V121.781V52.1668H187.813Z" fill="#808080"/>
<path d="M124.875 193V52.1668H121.429L123.727 30.8354H160.03C166.464 30.8354 171.672 32.8232 175.655 36.799C179.638 40.6218 181.629 45.7444 181.629 52.1668V100.334C181.629 102.475 181.323 104.54 180.71 106.527C184.386 110.503 186.224 115.549 186.224 121.666V171.669C186.224 178.091 183.773 183.29 178.872 187.266C174.123 191.089 168.532 193 162.098 193H124.875ZM158.652 52.1668H146.704V100.334H158.652C159.418 100.334 159.801 99.9522 159.801 99.1876V53.3136C159.801 52.5491 159.418 52.1668 158.652 52.1668ZM163.247 121.666H146.704V171.669H163.247C164.013 171.669 164.396 171.286 164.396 170.522V122.813C164.396 122.048 164.013 121.666 163.247 121.666Z" fill="#808080"/>
<path d="M80.7696 145.52V169.834C80.7696 170.598 81.1525 170.98 81.9184 170.98H91.1093C91.8752 170.98 92.2581 170.598 92.2581 169.834V128.547L74.1062 120.519C72.7276 120.06 70.8128 119.296 68.3619 118.225C65.911 117.002 63.6899 115.244 61.6985 112.95C59.8604 110.656 58.9413 107.521 58.9413 103.546V51.2493C58.9413 44.8269 60.9326 39.7043 64.9153 35.8815C68.898 31.9057 74.1062 29.9178 80.5398 29.9178H92.4879C98.9215 29.9178 104.13 31.9057 108.112 35.8815C112.095 39.7043 114.086 44.8269 114.086 51.2493V85.196L92.2581 83.3611V52.3961C92.2581 51.6315 91.8752 51.2493 91.1093 51.2493H81.9184C81.1525 51.2493 80.7696 51.6315 80.7696 52.3961V100.334L98.9215 108.362C100.3 108.974 102.215 109.815 104.666 110.885C107.117 111.956 109.261 113.638 111.099 115.932C113.091 118.225 114.086 121.36 114.086 125.336V170.98C114.086 177.403 112.095 182.602 108.112 186.578C104.13 190.4 98.9215 192.312 92.4879 192.312H80.5398C74.1062 192.312 68.898 190.4 64.9153 186.578C60.9326 182.602 58.9413 177.403 58.9413 170.98V145.52H80.7696Z" fill="#808080"/>
<path d="M47.9522 190.876H23.9761C18.435 190.876 15.6644 188.083 15.6644 182.499V181.621C15.6644 176.037 18.435 173.244 23.9761 173.244H33.4867L33.0071 177.473H23.9761C22.3244 177.473 21.2322 177.739 20.6994 178.27C20.1666 178.802 19.9002 179.919 19.9002 181.621V182.499C19.9002 184.148 20.1666 185.265 20.6994 185.85C21.2322 186.381 22.3244 186.647 23.9761 186.647H47.9522C49.6039 186.647 50.6962 186.381 51.229 185.85C51.7618 185.265 52.0282 184.148 52.0282 182.499V181.621C52.0282 179.919 51.7618 178.802 51.229 178.27C50.6962 177.739 49.6039 177.473 47.9522 177.473H39.2409V173.244H47.9522C53.4934 173.244 56.264 176.037 56.264 181.621V182.499C56.264 188.083 53.4934 190.876 47.9522 190.876Z" fill="#808080"/>
<path d="M23.9761 154.516C22.3244 154.516 21.2322 154.782 20.6994 155.314C20.1666 155.846 19.9002 156.963 19.9002 158.665V160.101C19.9002 161.75 20.1666 162.867 20.6994 163.452C21.2322 163.984 22.3244 164.25 23.9761 164.25H47.9522C49.6039 164.25 50.6962 163.984 51.229 163.452C51.7618 162.867 52.0282 161.75 52.0282 160.101V158.665C52.0282 156.963 51.7618 155.846 51.229 155.314C50.6962 154.782 49.6039 154.516 47.9522 154.516H23.9761ZM47.9522 168.478H23.9761C18.435 168.478 15.6644 165.686 15.6644 160.101V158.665C15.6644 153.08 18.435 150.288 23.9761 150.288H47.9522C53.4934 150.288 56.264 153.08 56.264 158.665V160.101C56.264 165.686 53.4934 168.478 47.9522 168.478Z" fill="#808080"/>
<path d="M55.9443 144.896H4.23578V146.332L0 145.694V140.668H51.7085V137.876L55.9443 138.514V144.896Z" fill="#808080"/>
<path d="M55.9443 133.25H4.23578V134.686L0 134.048V129.022H51.7085V126.23L55.9443 126.868V133.25Z" fill="#808080"/>
<path d="M47.9522 122.632H23.9761C18.435 122.632 15.6644 119.84 15.6644 114.255V113.377C15.6644 107.793 18.435 105 23.9761 105H39.3208V118.404H47.9522C49.6039 118.404 50.6962 118.138 51.229 117.606C51.7618 117.021 52.0282 115.904 52.0282 114.255V113.377C52.0282 111.675 51.7618 110.558 51.229 110.027C50.6962 109.495 49.6039 109.229 47.9522 109.229H44.1161V105H47.9522C53.4934 105 56.264 107.793 56.264 113.377V114.255C56.264 119.84 53.4934 122.632 47.9522 122.632ZM23.9761 109.229C22.3244 109.229 21.2322 109.495 20.6994 110.027C20.1666 110.558 19.9002 111.675 19.9002 113.377V114.255C19.9002 115.904 20.1666 117.021 20.6994 117.606C21.2322 118.138 22.3244 118.404 23.9761 118.404H35.0851V109.229H23.9761Z" fill="#808080"/>
<path d="M47.9522 100.234H23.9761C18.435 100.234 15.6644 97.4418 15.6644 91.8571V90.9795C15.6644 85.3948 18.435 82.6025 23.9761 82.6025H33.4867L33.0071 86.8309H23.9761C22.3244 86.8309 21.2322 87.0968 20.6994 87.6287C20.1666 88.1606 19.9002 89.2775 19.9002 90.9795V91.8571C19.9002 93.5059 20.1666 94.6228 20.6994 95.2079C21.2322 95.7398 22.3244 96.0057 23.9761 96.0057H47.9522C49.6039 96.0057 50.6962 95.7398 51.229 95.2079C51.7618 94.6228 52.0282 93.5059 52.0282 91.8571V90.9795C52.0282 89.2775 51.7618 88.1606 51.229 87.6287C50.6962 87.0968 49.6039 86.8309 47.9522 86.8309H39.2409V82.6025H47.9522C53.4934 82.6025 56.264 85.3948 56.264 90.9795V91.8571C56.264 97.4418 53.4934 100.234 47.9522 100.234Z" fill="#808080"/>
<path d="M51.7085 67.6243H55.9443V71.4538C55.9443 72.7303 55.5713 73.7674 54.8254 74.5652C54.0262 75.3098 52.9872 75.6822 51.7085 75.6822H20.2199V79.0329L15.9841 78.3947V75.6822H4.23578V77.1182L0 76.48V71.4538H15.9841V67.6243L20.2199 68.2625V71.4538H51.7085V67.6243Z" fill="#808080"/>
<path d="M23.9761 50.0469C22.3244 50.0469 21.2322 50.3129 20.6994 50.8447C20.1666 51.3766 19.9002 52.4935 19.9002 54.1955V55.6316C19.9002 57.2804 20.1666 58.3973 20.6994 58.9824C21.2322 59.5143 22.3244 59.7802 23.9761 59.7802H47.9522C49.6039 59.7802 50.6962 59.5143 51.229 58.9824C51.7618 58.3973 52.0282 57.2804 52.0282 55.6316V54.1955C52.0282 52.4935 51.7618 51.3766 51.229 50.8447C50.6962 50.3129 49.6039 50.0469 47.9522 50.0469H23.9761ZM47.9522 64.0086H23.9761C18.435 64.0086 15.6644 61.2163 15.6644 55.6316V54.1955C15.6644 48.6109 18.435 45.8185 23.9761 45.8185H47.9522C53.4934 45.8185 56.264 48.6109 56.264 54.1955V55.6316C56.264 61.2163 53.4934 64.0086 47.9522 64.0086Z" fill="#808080"/>
<path d="M15.9841 36.5976H19.0211L15.9841 34.7626V30.6938H20.6994V36.5976H55.9443V40.826H20.2199V42.2621L15.9841 41.6238V36.5976Z" fill="#808080"/>
<path d="M192.129 27.9233V2.11419H191.409L191.729 0H194.247V8.97535L195.166 7.97809H196.324C197.55 7.97809 198.522 8.32381 199.242 9.01524C199.987 9.70668 200.36 10.5976 200.36 11.6879V24.2135C200.36 25.5964 199.948 26.567 199.122 27.1255C198.322 27.6574 197.377 27.9233 196.285 27.9233H196.205C195.858 27.9233 195.512 27.8834 195.166 27.8036C194.846 27.6973 194.54 27.5776 194.247 27.4446V27.9233H192.129ZM197.044 25.8091C197.523 25.8091 197.843 25.7293 198.003 25.5698C198.163 25.4102 198.243 25.0911 198.243 24.6124V11.289C198.243 10.8103 198.163 10.4912 198.003 10.3316C197.843 10.1721 197.523 10.0923 197.044 10.0923H194.247V25.8091H197.044Z" fill="#808080"/>
<path d="M223.729 11.9671C223.729 11.1427 223.596 10.5976 223.329 10.3316C223.063 10.0657 222.503 9.93272 221.651 9.93272H220.932C220.106 9.93272 219.546 10.0657 219.253 10.3316C218.987 10.5976 218.854 11.1427 218.854 11.9671V23.9343C218.854 24.7587 218.987 25.3038 219.253 25.5698C219.546 25.8357 220.106 25.9687 220.932 25.9687H221.651C222.503 25.9687 223.063 25.8357 223.329 25.5698C223.596 25.3038 223.729 24.7587 223.729 23.9343V11.9671ZM216.736 23.9343V11.9671C216.736 9.2014 218.134 7.81853 220.932 7.81853H221.651C224.448 7.81853 225.847 9.2014 225.847 11.9671V23.9343C225.847 26.7 224.448 28.0829 221.651 28.0829H220.932C218.134 28.0829 216.736 26.7 216.736 23.9343Z" fill="#808080"/>
<path d="M247.328 25.8091V27.9233H245.41C244.771 27.9233 244.251 27.7372 243.852 27.3648C243.479 26.9659 243.292 26.4474 243.292 25.8091V10.0923H241.614L241.934 7.97809H243.292V2.11419H242.573L242.893 0H245.41V7.97809H247.328L247.009 10.0923H245.41V25.8091H247.328Z" fill="#808080"/>
</svg>
